<svg t="1616940208500" class="icon" viewBox="0 0 1024 1024" version="1.1" xmlns="http://www.w3.org/2000/svg" p-id="22816" width="200" height="200"><path d="M204.8 102.4c-10.24 0-17.066667-6.826667-17.066667-17.066667v-68.266666c0-10.24 6.826667-17.066667 17.066667-17.066667s17.066667 6.826667 17.066667 17.066667v68.266666c0 10.24-6.826667 17.066667-17.066667 17.066667z" fill="" p-id="22817"></path><path d="M273.066667 68.266667H221.866667c-10.24 0-17.066667-6.826667-17.066667-17.066667s6.826667-17.066667 17.066667-17.066667H273.066667c10.24 0 17.066667 6.826667 17.066666 17.066667S283.306667 68.266667 273.066667 68.266667z" fill="" p-id="22818"></path><path d="M273.066667 102.4c-10.24 0-17.066667-6.826667-17.066667-17.066667v-68.266666c0-10.24 6.826667-17.066667 17.066667-17.066667s17.066667 6.826667 17.066666 17.066667v68.266666c0 10.24-6.826667 17.066667-17.066666 17.066667zM443.733333 34.133333h-68.266666c-10.24 0-17.066667-6.826667-17.066667-17.066666s6.826667-17.066667 17.066667-17.066667h68.266666c10.24 0 17.066667 6.826667 17.066667 17.066667s-6.826667 17.066667-17.066667 17.066666z" fill="" p-id="22819"></path><path d="M409.6 102.4c-10.24 0-17.066667-6.826667-17.066667-17.066667v-68.266666c0-10.24 6.826667-17.066667 17.066667-17.066667s17.066667 6.826667 17.066667 17.066667v68.266666c0 10.24-6.826667 17.066667-17.066667 17.066667zM614.4 102.4c-3.413333 0-10.24 0-13.653333-3.413333l-37.546667-37.546667v27.306667c0 6.826667-6.826667 13.653333-17.066667 13.653333s-17.066667-6.826667-17.066666-17.066667v-68.266666c0-6.826667 3.413333-13.653333 10.24-17.066667 6.826667 0 13.653333 0 20.48 3.413333L614.4 61.44 669.013333 6.826667c6.826667-6.826667 13.653333-6.826667 20.48-6.826667 6.826667 3.413333 10.24 10.24 10.24 17.066667v68.266666c0 10.24-6.826667 17.066667-17.066666 17.066667s-17.066667-6.826667-17.066667-17.066667v-27.306666l-37.546667 37.546666c-3.413333 6.826667-10.24 6.826667-13.653333 6.826667zM819.2 102.4h-34.133333c-10.24 0-17.066667-6.826667-17.066667-17.066667v-68.266666c0-10.24 6.826667-17.066667 17.066667-17.066667s17.066667 6.826667 17.066666 17.066667V68.266667h17.066667c10.24 0 17.066667 6.826667 17.066667 17.066666s-6.826667 17.066667-17.066667 17.066667zM529.066667 1024h-6.826667l-290.133333-102.4c-6.826667-3.413333-10.24-6.826667-10.24-13.653333l-68.266667-682.666667c0-3.413333 0-10.24 3.413333-13.653333 3.413333-3.413333 10.24-6.826667 13.653334-6.826667h682.666666c3.413333 0 10.24 3.413333 13.653334 6.826667 3.413333 3.413333 3.413333 6.826667 3.413333 13.653333l-68.266667 682.666667c0 6.826667-3.413333 10.24-10.24 13.653333l-256 102.4h-6.826666z m-273.066667-133.12l273.066667 95.573333 238.933333-95.573333L832.853333 238.933333H191.146667l64.853333 651.946667z" fill="" p-id="22820"></path><path d="M529.066667 853.333333h-6.826667l-153.6-51.2c-3.413333 0-10.24-6.826667-10.24-10.24l-34.133333-85.333333c-3.413333-10.24 0-17.066667 10.24-23.893333 10.24-3.413333 17.066667 0 23.893333 10.24l30.72 78.506666 139.946667 47.786667 105.813333-44.373333 30.72-194.56H341.333333c-6.826667 0-13.653333-6.826667-17.066666-13.653334l-34.133334-170.666666c0-3.413333 0-10.24 3.413334-13.653334 3.413333-3.413333 6.826667-6.826667 13.653333-6.826666h409.6c10.24 0 17.066667 6.826667 17.066667 17.066666s-6.826667 17.066667-17.066667 17.066667H327.68l27.306667 136.533333H682.666667c3.413333 0 10.24 3.413333 13.653333 6.826667 3.413333 3.413333 3.413333 10.24 3.413333 13.653333l-34.133333 221.866667c0 6.826667-3.413333 10.24-10.24 13.653333L535.893333 853.333333h-6.826666z" fill="" p-id="22821"></path></svg>